<svg xmlns="http://www.w3.org/2000/svg" viewBox="0 0 850.39 199.26"><defs><style>.cls-1{fill:#fff;}</style></defs><title>Asset 2</title><g id="Layer_2" data-name="Layer 2"><g id="Layer_1-2" data-name="Layer 1"><path class="cls-1" d="M701.8,199.26A99.63,99.63,0,1,1,791.39,56l1.84,3.78-7.55,3.69-1.84-3.78a91.24,91.24,0,1,0-82,131.18,90.67,90.67,0,0,0,82-51.27l1.84-3.78,7.55,3.69-1.84,3.78A99,99,0,0,1,701.8,199.26Z"/><path class="cls-1" d="M757.63,121.22a3.3,3.3,0,0,1-1.07-2.52V86.64l-2.09,1.28a4.38,4.38,0,0,1-2.09.53,3.35,3.35,0,0,1-1.63-.41,3.15,3.15,0,0,1-1.21-1.19,3.55,3.55,0,0,1-.43-2.73,3.44,3.44,0,0,1,1.63-2.2l7.35-4.51a3.8,3.8,0,0,1,1.63-.5.61.61,0,0,1,.25,0h.21a3.26,3.26,0,0,1,2.47,1,3.57,3.57,0,0,1,1,2.56V118.7a3.57,3.57,0,0,1-1,2.56,3.26,3.26,0,0,1-2.47,1A3.64,3.64,0,0,1,757.63,121.22Z"/><path class="cls-1" d="M783.92,120.92a23.21,23.21,0,0,1-11-33,23.22,23.22,0,0,1,3.59-4.67,22.49,22.49,0,0,1,4.65-3.6,22.78,22.78,0,0,1,11.65-3.16,23.1,23.1,0,0,1,11.68,3.16,23.34,23.34,0,0,1,4.69,3.6A22.58,22.58,0,0,1,812.83,88,23,23,0,0,1,816,99.63a22.45,22.45,0,0,1-1.79,8.89,23.28,23.28,0,0,1-12.41,12.39,23.17,23.17,0,0,1-17.88,0Zm15.18-6.5a15.75,15.75,0,0,0,8.57-8.56,16,16,0,0,0,1.23-6.23,16,16,0,0,0-4.65-11.29,16.07,16.07,0,0,0-11.36-4.69,15.95,15.95,0,0,0-15.94,16,16,16,0,0,0,1.23,6.23,15.79,15.79,0,0,0,3.43,5.13,15.39,15.39,0,0,0,5.09,3.43,16.33,16.33,0,0,0,12.41,0Z"/><path class="cls-1" d="M828.45,122.32a3.23,3.23,0,0,1-1.67-.46,2.84,2.84,0,0,1-1.53-2.17,5.73,5.73,0,0,1-.07-.71,4.54,4.54,0,0,1,.5-2.06l15.44-33H823.59a3.66,3.66,0,0,1-2.59-1,3.26,3.26,0,0,1-1.06-2.49A3.34,3.34,0,0,1,821,77.87a3.67,3.67,0,0,1,2.59-1h23.18a3.34,3.34,0,0,1,2.09.71,4.11,4.11,0,0,1,1.35,1.81,5.93,5.93,0,0,1,.18,1v.14a5.94,5.94,0,0,1-.07.67,4.08,4.08,0,0,1-.39,1v0l-18.21,38.24a3.54,3.54,0,0,1-.92,1.08,3.42,3.42,0,0,1-1.24.62A3.93,3.93,0,0,1,828.45,122.32Z"/><path class="cls-1" d="M30.52,98.12c7.65-3.33,8.79-10.62,8.79-17.53V75.5c0-13.76-6.16-20.16-19.4-20.16H5a5,5,0,0,0-5,5v81.45a5,5,0,0,0,5,5H20.29C34,146.82,41,139.48,41,125v-7.76C41,107.37,37.45,101,30.52,98.12Zm-10.22,41-12,0a.25.25,0,0,1,0-.09l.07-36.6h9.8c10.49,0,14.58,4.05,14.58,14.45v8C32.71,134.83,29,139.08,20.29,139.08ZM27.79,92c-2.15,1.83-5.48,2.64-10.8,2.64l-8.71,0a.25.25,0,0,1,0-.09l.07-31.51H19.78c8.22,0,11.27,3.5,11.27,12.93v5.73C31.05,87,30,90.23,27.79,92Z"/><path class="cls-1" d="M84.75,63.08a3.87,3.87,0,1,0,0-7.75H56.11a5,5,0,0,0-5,5v81.45a5,5,0,0,0,5,5H84.75a3.87,3.87,0,1,0,0-7.75L59.35,139l.07-34.69H79.78a3.87,3.87,0,0,0,0-7.75H59.42l-.07-.07.07-33.42Z"/><path class="cls-1" d="M125.75,60.36a6.47,6.47,0,0,0-6.27-5.15,6.54,6.54,0,0,0-6.39,5.14l-18,81.91a4,4,0,0,0,.89,3.23,3.84,3.84,0,0,0,3,1.33,3.93,3.93,0,0,0,3.72-3l3.57-15.69a1.24,1.24,0,0,1,1.24-1.07H131.2a1.46,1.46,0,0,1,1.37,1.1L136,143.55a4,4,0,0,0,4,3.28,4.06,4.06,0,0,0,3.16-1.52,4,4,0,0,0,.81-3.38Zm-6.51,8.23,11.42,50.18a.65.65,0,0,1-.14.55.75.75,0,0,1-.6.28H108.8a.75.75,0,0,1-.6-.28.66.66,0,0,1-.14-.55Z"/><path class="cls-1" d="M189.07,55.33a4,4,0,0,0-4,3.87v64.91c0,4.8-.94,8.75-2.71,11.4-2.06,2.91-5.16,4.33-9.46,4.33s-7.38-1.41-9.33-4.33c-1.85-2.62-2.83-6.56-2.83-11.4V59.46a4.13,4.13,0,1,0-8.26,0v64.4c0,7,1.58,12.6,4.69,16.76,3.42,4.56,8.81,7,15.6,7s12.18-2.41,15.6-7c3.07-4.1,4.57-9.58,4.57-16.76V59.21A4,4,0,0,0,189.07,55.33Z"/><path class="cls-1" d="M242.93,55.33H206.15a3.87,3.87,0,0,0,0,7.75h13.62a.76.76,0,0,1,.71.71V142.7a4.13,4.13,0,0,0,8.26,0V63.79a.76.76,0,0,1,.71-.71h13.49a3.87,3.87,0,0,0,0-7.75Z"/><path class="cls-1" d="M296.69,55.33A4,4,0,0,0,293,57.9L277.67,99.82,262.43,57.9a4,4,0,0,0-3.67-2.56h-.38a3.91,3.91,0,0,0-3.23,1.7,3.77,3.77,0,0,0-.45,3.48l18.06,49.6a9.73,9.73,0,0,1,.57,3.06V142.7a4.13,4.13,0,0,0,8.26,0V113.17a9.08,9.08,0,0,1,.56-3l18.19-49.62a3.74,3.74,0,0,0-.46-3.46A3.91,3.91,0,0,0,296.69,55.33Z"/><path class="cls-1" d="M351.07,98.69a72.58,72.58,0,0,1-7.67-5.91c-5.51-4.64-8-9.34-8-15.24,0-10.1,4-15.22,12-15.22,4.07,0,7.3,1.46,9.31,4.17,1.81,2.71,2.73,6.47,2.73,11.17v.64a4,4,0,0,0,8,0V78c0-7-1.58-12.6-4.71-16.77-3.44-4.45-8.64-6.7-15.46-6.7h0c-13,.12-20.15,8.42-20.15,23.35A22.13,22.13,0,0,0,329.73,89c2.78,5.33,7.27,9.92,14.13,14.43,2.6,1.86,5.3,3.78,7.66,5.77,5.44,4.72,7.86,9.42,7.86,15.26,0,10.1-4.13,15.22-12.29,15.22s-12.29-5.12-12.29-15.22v-2.16a4,4,0,1,0-8,0v1.78c0,7.07,1.63,12.67,4.82,16.63,3.41,4.54,8.65,6.84,15.6,6.84s12.17-2.3,15.71-6.83c3.12-4,4.71-9.63,4.71-16.64a23.27,23.27,0,0,0-2.44-11C362.37,108,357.88,103.44,351.07,98.69Z"/><path class="cls-1" d="M397.29,55.33H382.65a5,5,0,0,0-5,5V142.7a4.13,4.13,0,0,0,8.26,0l.07-32.53h9.8c14.68,0,21.82-7.3,21.82-22.33V78.17C417.58,63.23,410.56,55.33,397.29,55.33Zm-1.53,47.09-9.86,0a.24.24,0,0,1,0-.09L386,63.08h11.33c8.44,0,12,4.4,12,14.71V88.23C409.32,98.31,405.39,102.42,395.76,102.42Z"/><path class="cls-1" d="M449.56,60.36a6.47,6.47,0,0,0-6.27-5.15,6.54,6.54,0,0,0-6.39,5.14l-18,81.91a4,4,0,0,0,.89,3.23,3.84,3.84,0,0,0,3,1.33,3.93,3.93,0,0,0,3.72-3l3.57-15.69a1.24,1.24,0,0,1,1.24-1.07H455a1.46,1.46,0,0,1,1.37,1.1l3.43,15.35a4,4,0,0,0,4,3.28,4.05,4.05,0,0,0,3.16-1.52,4,4,0,0,0,.81-3.38Zm-6.51,8.23,11.42,50.18a.65.65,0,0,1-.14.55.75.75,0,0,1-.6.28H432.61a.75.75,0,0,1-.6-.28.66.66,0,0,1-.14-.55Z"/><path class="cls-1" d="M495.09,54.57c-6.74,0-12.13,2.36-15.58,6.82-3.21,4.11-4.84,9.79-4.84,16.9v45.56c0,7.15,1.63,12.8,4.82,16.76,3.42,4.56,8.81,7,15.6,7s12.1-2.34,15.71-7c3.12-4,4.71-9.68,4.71-16.77v-7.38a4,4,0,1,0-8,0v7.76c0,4.85-.95,8.59-2.83,11.14-2.06,2.91-5.16,4.33-9.46,4.33s-7.39-1.42-9.47-4.35c-1.87-2.53-2.82-6.27-2.82-11.12V77.92c0-4.82,1-8.61,2.83-11.27,2.06-2.91,5.16-4.33,9.46-4.33s7.39,1.42,9.46,4.33c1.88,2.66,2.83,6.45,2.83,11.27v5a4,4,0,0,0,8,0V78.3c0-7-1.58-12.73-4.72-16.92C507.15,56.86,501.87,54.57,495.09,54.57Z"/><path class="cls-1" d="M559.29,139.08,533.9,139l.07-34.69h20.36a3.87,3.87,0,0,0,0-7.75H534l-.07-.07L534,63.08h25.33a3.87,3.87,0,0,0,0-7.75H530.66a5,5,0,0,0-5,5v81.45a5,5,0,0,0,5,5h28.64a3.87,3.87,0,1,0,0-7.75Z"/></g></g></svg>